HIERARCHY
ROOT Hips
{
     OFFSET 15.48990 96.42170 -12.42430
     CHANNELS 6 Xposition Yposition Zposition Zrotation Xrotation Yrotation
     JOINT Spine
     {
          OFFSET -0.00000 11.89050 0.00000
          CHANNELS 3 Zrotation Xrotation Yrotation
          JOINT Spine1
          {
               OFFSET 0.00000 25.65740 0.12766
               CHANNELS 3 Zrotation Xrotation Yrotation
               JOINT HEad
               {
                    OFFSET 0.00000 8.73416 0.01134
                    CHANNELS 3 Zrotation Xrotation Yrotation
                    End Site
                    {
                         OFFSET -0.29000 12.77420 2.51395
                    }
               }
               JOINT LeftShoulder1
               {
                    OFFSET 8.99000 -0.36225 -0.22000
                    CHANNELS 3 Zrotation Xrotation Yrotation
                    JOINT LeftArm
                    {
                         OFFSET 10.28270 -0.00338 0.32212
                         CHANNELS 3 Zrotation Xrotation Yrotation
                         JOINT LeftForeArm
                         {
                              OFFSET 32.76690 0.09914 -1.42434
                              CHANNELS 3 Zrotation Xrotation Yrotation
                              JOINT LeftHand
                              {
                                   OFFSET 27.56430 0.08536 1.02216
                                   CHANNELS 3 Zrotation Xrotation Yrotation
                                   End Site
                                   {
                                        OFFSET 16.74430 -0.60000 1.50291
                                   }
                              }
                         }
                    }
               }
               JOINT RightShoulder
               {
                    OFFSET -8.99000 -0.36225 -0.22000
                    CHANNELS 3 Zrotation Xrotation Yrotation
                    JOINT RightArm
                    {
                         OFFSET -10.28270 -0.00338 0.32212
                         CHANNELS 3 Zrotation Xrotation Yrotation
                         JOINT RightForeArm
                         {
                              OFFSET -32.89710 0.09914 -1.42434
                              CHANNELS 3 Zrotation Xrotation Yrotation
                              JOINT RightHand
                              {
                                   OFFSET -27.49210 0.08536 1.02216
                                   CHANNELS 3 Zrotation Xrotation Yrotation
                                   End Site
                                   {
                                        OFFSET -16.63120 -0.60000 1.50291
                                   }
                              }
                         }
                    }
               }
          }
     }
     JOINT LeftUpLeg
     {
          OFFSET 8.94580 -8.66707 0.10165
          CHANNELS 3 Zrotation Xrotation Yrotation
          JOINT LeftLeg
          {
               OFFSET -0.00000 -44.42270 1.37270
               CHANNELS 3 Zrotation Xrotation Yrotation
               JOINT LeftFoot
               {
                    OFFSET -0.25355 -42.09240 -1.46059
                    CHANNELS 3 Zrotation Xrotation Yrotation
                    JOINT LeftToes
                    {
                         OFFSET -0.04000 -4.41509 8.49910
                         CHANNELS 3 Zrotation Xrotation Yrotation
                         End Site
                         {
                              OFFSET 0.08000 -0.04745 9.77979
                         }
                    }
               }
          }
     }
     JOINT RightUpLeg
     {
          OFFSET -8.94580 -8.66707 0.10165
          CHANNELS 3 Zrotation Xrotation Yrotation
          JOINT RightLeg
          {
               OFFSET -0.00000 -44.42270 1.37270
               CHANNELS 3 Zrotation Xrotation Yrotation
               JOINT RightFoot
               {
                    OFFSET 0.25355 -42.09240 -1.46059
                    CHANNELS 3 Zrotation Xrotation Yrotation
                    JOINT RightToes
                    {
                         OFFSET 0.04000 -4.41509 8.49910
                         CHANNELS 3 Zrotation Xrotation Yrotation
                         End Site
                         {
                              OFFSET -0.08000 -0.13745 9.77979
                         }
                    }
               }
          }
     }
}
MOTION
Frames: 10
Frame Time: 0.01667
15.81540 95.66070 -15.33130 1.77504 -10.78930 20.06300 -2.63473 8.83418 -0.38478 -2.21507 17.37210 -0.96028 5.68678 -6.98267 13.38270 -0.00000 -0.00000 0.00000 -63.96150 -23.66340 -73.90910 -6.12792 -0.50812 -72.38030 8.04437 8.78520 -13.15490 19.13140 1.02892 2.36949 88.25130 -15.41040 77.47110 15.94370 34.66580 98.64220 17.82970 12.06400 9.10402 16.52170 -8.28823 -14.57830 -20.22030 5.82840 58.96030 -0.75833 11.69580 0.04176 3.72366 -25.79170 -58.93550 -23.48550 18.25130 15.23320 40.88560 -2.33093 -50.39570 -38.89980 2.72085 3.56764 3.36411 -40.56350 -0.46342 
16.40450 95.70430 -15.23850 1.96387 -10.77930 21.76290 -2.59797 8.85484 -0.41448 -2.23899 17.41460 -0.92732 5.73836 -7.27286 12.13880 -0.00000 -0.00000 0.00000 -64.10420 -22.83610 -74.37690 -6.07638 0.08904 -72.34540 8.29031 8.75457 -13.05200 19.48830 0.98340 2.09732 88.20190 -16.21570 77.43460 16.10270 34.86720 98.91800 17.90390 12.05930 9.02096 15.89290 -8.25096 -13.14930 -19.73130 5.74416 57.68800 0.37490 13.38000 -0.16441 3.11101 -27.33740 -60.50150 -23.84730 18.28600 15.72000 41.12450 -1.63859 -50.36020 -38.99270 3.27086 3.77427 3.22357 -40.24550 -0.93652 
17.04320 95.78440 -15.15830 2.03932 -10.79960 23.37130 -2.40508 8.83718 -0.50239 -2.22915 17.42060 -0.92518 5.80696 -7.45391 11.09800 -0.00000 -0.00000 0.00000 -64.55610 -22.32670 -74.74340 -6.15870 1.22768 -72.61170 8.60648 8.72497 -12.78870 20.00990 0.98116 2.00350 87.99160 -17.08980 77.41830 16.30450 35.03660 99.13130 17.99420 12.05940 8.95644 15.36690 -8.18369 -12.17890 -19.37210 5.56288 56.76000 1.38584 14.72450 -0.37347 2.60806 -28.43830 -62.06160 -24.12640 18.25910 16.06380 41.34480 -0.78012 -50.09460 -38.99570 4.04590 4.05224 3.14567 -40.00820 -1.18394 
17.70050 95.86430 -15.08150 2.05833 -10.81970 24.86880 -2.18445 8.81059 -0.60594 -2.17529 17.41570 -0.94144 5.88735 -7.56081 10.23560 -0.00000 -0.00000 0.00000 -65.06590 -21.92520 -75.04520 -6.22872 2.37754 -73.08750 8.79195 8.72214 -12.43950 20.62840 1.01622 2.06291 87.72490 -18.04900 77.47750 16.52960 35.20790 99.29560 18.08860 12.06410 8.91801 14.89060 -8.18327 -11.63630 -19.13910 5.45868 56.13810 2.22451 15.75990 -0.56287 2.18244 -29.26350 -63.49960 -24.38810 18.14090 16.28550 41.53790 0.25676 -49.58190 -38.82910 5.10299 4.40975 3.16596 -39.89980 -1.05921 
18.34930 95.92620 -15.00100 2.07916 -10.81610 26.23550 -2.03416 8.80640 -0.69010 -2.12205 17.44160 -0.96595 5.95073 -7.68112 9.49938 -0.00000 -0.00000 0.00000 -65.66650 -21.62920 -75.35430 -6.30823 3.49551 -73.70670 8.86293 8.73867 -12.06460 21.17660 1.07179 2.21830 87.55170 -19.00100 77.60680 16.70810 35.36060 99.47000 18.20560 12.07250 8.88628 14.41640 -8.26350 -11.43320 -19.00590 5.48080 55.72970 2.89131 16.56380 -0.72368 1.78285 -30.00420 -64.70130 -24.54820 17.41020 16.18290 41.73170 2.54443 -49.03600 -38.08500 6.08275 4.65851 3.27809 -39.80140 -0.54140 
18.98970 96.00600 -14.91620 2.04199 -10.82570 27.46420 -1.81559 8.80990 -0.78328 -2.04444 17.50030 -0.98045 5.99401 -7.87765 8.85332 -0.00000 -0.00000 0.00000 -66.49840 -21.52960 -75.71200 -6.48973 4.79391 -74.44000 8.95665 8.75158 -11.70200 21.55250 1.13007 2.40637 87.56280 -19.84040 77.77570 16.80240 35.49420 99.68120 18.32670 12.08080 8.85159 14.04260 -8.29974 -11.46040 -18.94630 5.41897 55.40840 3.52261 17.24090 -0.88153 1.36484 -30.79990 -65.61230 -24.67340 16.59060 16.01690 41.91740 4.94873 -48.15110 -37.30560 7.21870 4.94168 3.46671 -39.53920 0.38045 
19.60670 96.09890 -14.83240 1.94882 -10.86430 28.52220 -1.54740 8.82464 -0.87101 -1.95123 17.59510 -0.96510 6.02312 -8.16933 8.28456 -0.00000 -0.00000 0.00000 -67.55860 -21.62230 -76.11610 -6.79644 6.29199 -75.23890 9.14145 8.74914 -11.38650 21.77860 1.18533 2.60164 87.73210 -20.52430 77.95800 16.80650 35.61970 99.92140 18.41720 12.08720 8.82679 13.78420 -8.27072 -11.57340 -18.93680 5.28129 55.13570 4.14074 17.81130 -1.03948 0.91599 -31.67740 -66.29360 -24.75960 15.70810 15.86090 42.09180 7.36046 -46.98190 -36.59100 8.42498 5.24174 3.73097 -39.06490 1.76141 
20.18600 96.19880 -14.75590 1.80938 -10.93330 29.39690 -1.26207 8.85198 -0.94336 -1.84270 17.71900 -0.91891 6.01978 -8.55105 7.78554 -0.00000 -0.00000 0.00000 -68.73960 -21.83280 -76.55120 -7.19757 7.84343 -76.03000 9.40706 8.73191 -11.13560 21.91990 1.24240 2.81597 87.97730 -21.05700 78.13260 16.72940 35.72700 100.17200 18.48510 12.09170 8.80652 13.62300 -8.19259 -11.66030 -18.93600 5.12285 54.92560 4.68497 18.28850 -1.18253 0.47210 -32.53150 -66.87670 -24.83060 14.80910 15.80200 42.27020 9.61241 -45.66000 -35.99010 9.70135 5.56761 4.08280 -38.55160 3.62254 
20.71680 96.29960 -14.69090 1.64359 -11.01270 30.10860 -0.99848 8.88866 -0.99984 -1.71590 17.85290 -0.86449 5.96359 -8.97325 7.33521 -0.00000 -0.00000 0.00000 -69.96000 -22.12650 -77.00360 -7.67633 9.37730 -76.75850 9.74844 8.70182 -10.93470 22.02850 1.30592 3.06083 88.21590 -21.45170 78.28450 16.58750 35.78790 100.40600 18.55900 12.09370 8.76808 13.50160 -8.10977 -11.65660 -18.88400 5.01780 54.77250 5.08011 18.68700 -1.29191 0.08600 -33.22480 -67.46850 -24.92580 13.94770 15.87020 42.45670 11.55160 -44.33260 -35.49210 11.12180 5.94424 4.54797 -38.31640 5.89624 
21.19290 96.39870 -14.63660 1.47138 -11.07750 30.69350 -0.79005 8.92726 -1.04535 -1.58168 17.97240 -0.82786 5.87759 -9.33736 6.91068 -0.00000 -0.00000 0.00000 -71.16460 -22.51380 -77.46540 -8.23971 10.90810 -77.39770 10.16790 8.66051 -10.75960 22.15760 1.37364 3.31700 88.39340 -21.72650 78.42170 16.39850 35.80080 100.58300 18.63090 12.09380 8.71941 13.35130 -8.05161 -11.49870 -18.71130 5.01337 54.58160 5.33531 19.01220 -1.36761 -0.21558 -33.70330 -68.09090 -25.07030 13.17040 16.02480 42.62720 13.09980 -43.11460 -35.03320 12.71510 6.37063 5.13873 -38.53470 8.40802 
